<svg width="206" height="48" viewBox="0 0 206 48" fill="none" xmlns="http://www.w3.org/2000/svg">
<path d="M108.813 11V3.0752H110.922V9.35205H113.574V3.0752H115.69V11H108.813ZM116.877 9.35938L116.738 13.3511H114.775V11H113.889V9.35938H116.877ZM121.594 11.1465C120.979 11.1465 120.427 11.0488 119.938 10.8535C119.45 10.6533 119.035 10.3774 118.693 10.0259C118.356 9.67432 118.098 9.2666 117.917 8.80273C117.736 8.33398 117.646 7.83594 117.646 7.30859V7.01562C117.646 6.41504 117.731 5.86572 117.902 5.36768C118.073 4.86963 118.317 4.4375 118.635 4.07129C118.957 3.70508 119.348 3.42432 119.807 3.229C120.266 3.02881 120.783 2.92871 121.359 2.92871C121.921 2.92871 122.419 3.02148 122.854 3.20703C123.288 3.39258 123.652 3.65625 123.945 3.99805C124.243 4.33984 124.467 4.75 124.619 5.22852C124.77 5.70215 124.846 6.22949 124.846 6.81055V7.68945H118.547V6.2832H122.773V6.12207C122.773 5.8291 122.719 5.56787 122.612 5.33838C122.509 5.104 122.353 4.91846 122.143 4.78174C121.933 4.64502 121.665 4.57666 121.337 4.57666C121.059 4.57666 120.82 4.6377 120.62 4.75977C120.419 4.88184 120.256 5.05273 120.129 5.27246C120.007 5.49219 119.914 5.75098 119.851 6.04883C119.792 6.3418 119.763 6.66406 119.763 7.01562V7.30859C119.763 7.62598 119.807 7.91895 119.895 8.1875C119.987 8.45605 120.117 8.68799 120.283 8.8833C120.454 9.07861 120.659 9.22998 120.898 9.3374C121.142 9.44482 121.418 9.49854 121.726 9.49854C122.106 9.49854 122.46 9.42529 122.788 9.27881C123.12 9.12744 123.405 8.90039 123.645 8.59766L124.67 9.71094C124.504 9.9502 124.277 10.1797 123.989 10.3994C123.706 10.6191 123.364 10.7998 122.963 10.9414C122.563 11.0781 122.106 11.1465 121.594 11.1465ZM131.474 6.27588V7.9165H127.446V6.27588H131.474ZM128.149 3.0752V11H126.04V3.0752H128.149ZM132.902 3.0752V11H130.786V3.0752H132.902ZM138.579 3.0752V11H136.462V3.0752H138.579ZM141.127 3.0752V4.7085H133.95V3.0752H141.127ZM144.313 4.59863V14.0469H142.204V3.0752H144.16L144.313 4.59863ZM149.331 6.94971V7.10352C149.331 7.67969 149.262 8.21436 149.125 8.70752C148.994 9.20068 148.798 9.63037 148.54 9.99658C148.281 10.3579 147.958 10.6411 147.573 10.8462C147.192 11.0464 146.752 11.1465 146.254 11.1465C145.771 11.1465 145.351 11.0488 144.995 10.8535C144.638 10.6582 144.338 10.3848 144.094 10.0332C143.854 9.67676 143.662 9.26416 143.515 8.79541C143.369 8.32666 143.256 7.82373 143.178 7.28662V6.88379C143.256 6.30762 143.369 5.78027 143.515 5.30176C143.662 4.81836 143.854 4.40088 144.094 4.04932C144.338 3.69287 144.636 3.41699 144.987 3.22168C145.344 3.02637 145.761 2.92871 146.24 2.92871C146.743 2.92871 147.185 3.02393 147.565 3.21436C147.951 3.40479 148.273 3.67822 148.532 4.03467C148.796 4.39111 148.994 4.81592 149.125 5.30908C149.262 5.80225 149.331 6.34912 149.331 6.94971ZM147.214 7.10352V6.94971C147.214 6.61279 147.185 6.30273 147.126 6.01953C147.072 5.73145 146.984 5.47998 146.862 5.26514C146.745 5.05029 146.589 4.88428 146.394 4.76709C146.203 4.64502 145.971 4.58398 145.698 4.58398C145.41 4.58398 145.163 4.63037 144.958 4.72314C144.758 4.81592 144.594 4.9502 144.467 5.12598C144.34 5.30176 144.245 5.51172 144.182 5.75586C144.118 6 144.079 6.27588 144.064 6.5835V7.60156C144.089 7.96289 144.157 8.2876 144.27 8.57568C144.382 8.85889 144.555 9.0835 144.79 9.24951C145.024 9.41553 145.332 9.49854 145.712 9.49854C145.991 9.49854 146.225 9.4375 146.416 9.31543C146.606 9.18848 146.76 9.01514 146.877 8.79541C146.999 8.57568 147.084 8.32178 147.133 8.03369C147.187 7.74561 147.214 7.43555 147.214 7.10352ZM111.069 17.0752V25H108.959V17.0752H111.069ZM116.218 17.0752L112.805 22.0337H110.695L110.439 20.0854H111.838L113.544 17.0752H116.218ZM113.64 25L111.691 21.6528L113.53 20.6348L116.467 25H113.64ZM116.584 21.1182V20.9644C116.584 20.3833 116.667 19.8486 116.833 19.3604C116.999 18.8672 117.241 18.4399 117.558 18.0786C117.875 17.7173 118.266 17.4365 118.73 17.2363C119.194 17.0312 119.726 16.9287 120.327 16.9287C120.927 16.9287 121.462 17.0312 121.931 17.2363C122.399 17.4365 122.792 17.7173 123.11 18.0786C123.432 18.4399 123.676 18.8672 123.842 19.3604C124.008 19.8486 124.091 20.3833 124.091 20.9644V21.1182C124.091 21.6943 124.008 22.229 123.842 22.7222C123.676 23.2104 123.432 23.6377 123.11 24.0039C122.792 24.3652 122.402 24.646 121.938 24.8462C121.474 25.0464 120.942 25.1465 120.341 25.1465C119.741 25.1465 119.206 25.0464 118.737 24.8462C118.273 24.646 117.88 24.3652 117.558 24.0039C117.241 23.6377 116.999 23.2104 116.833 22.7222C116.667 22.229 116.584 21.6943 116.584 21.1182ZM118.693 20.9644V21.1182C118.693 21.4502 118.723 21.7603 118.781 22.0483C118.84 22.3364 118.933 22.5903 119.06 22.8101C119.191 23.0249 119.362 23.1934 119.572 23.3154C119.782 23.4375 120.039 23.4985 120.341 23.4985C120.634 23.4985 120.886 23.4375 121.096 23.3154C121.306 23.1934 121.474 23.0249 121.601 22.8101C121.728 22.5903 121.821 22.3364 121.879 22.0483C121.943 21.7603 121.975 21.4502 121.975 21.1182V20.9644C121.975 20.6421 121.943 20.3394 121.879 20.0562C121.821 19.7681 121.726 19.5142 121.594 19.2944C121.467 19.0698 121.298 18.894 121.088 18.7671C120.878 18.6401 120.625 18.5767 120.327 18.5767C120.029 18.5767 119.775 18.6401 119.565 18.7671C119.36 18.894 119.191 19.0698 119.06 19.2944C118.933 19.5142 118.84 19.7681 118.781 20.0562C118.723 20.3394 118.693 20.6421 118.693 20.9644ZM130.207 22.5757L132.287 17.0752H134.008L130.917 25H129.497L126.42 17.0752H128.142L130.207 22.5757ZM127.636 17.0752V25H125.527V17.0752H127.636ZM132.829 25V17.0752H134.938V25H132.829ZM142.116 17.0752V18.7305H138.278V17.0752H142.116ZM138.886 17.0752V25H136.777V17.0752H138.886ZM143.654 17.0752V25H141.538V17.0752H143.654ZM150.612 17.0752V18.7305H146.716V17.0752H150.612ZM152.158 17.0752V25H150.048V17.0752H152.158ZM146.188 17.0752H148.261L148.049 21.0742C148.02 21.6455 147.958 22.1484 147.866 22.583C147.773 23.0176 147.648 23.3887 147.492 23.6963C147.341 24.0039 147.158 24.2554 146.943 24.4507C146.733 24.6411 146.486 24.7803 146.203 24.8682C145.925 24.9561 145.617 25 145.28 25H144.636L144.614 23.3374L144.885 23.3081C145.041 23.2935 145.178 23.2495 145.295 23.1763C145.417 23.0981 145.52 22.9883 145.603 22.8467C145.69 22.7002 145.764 22.5171 145.822 22.2974C145.881 22.0728 145.927 21.8091 145.961 21.5063C146 21.2036 146.027 20.8545 146.042 20.459L146.188 17.0752ZM157.438 25.1465C156.823 25.1465 156.271 25.0488 155.783 24.8535C155.295 24.6533 154.88 24.3774 154.538 24.0259C154.201 23.6743 153.942 23.2666 153.762 22.8027C153.581 22.334 153.491 21.8359 153.491 21.3086V21.0156C153.491 20.415 153.576 19.8657 153.747 19.3677C153.918 18.8696 154.162 18.4375 154.479 18.0713C154.802 17.7051 155.192 17.4243 155.651 17.229C156.11 17.0288 156.628 16.9287 157.204 16.9287C157.766 16.9287 158.264 17.0215 158.698 17.207C159.133 17.3926 159.497 17.6562 159.79 17.998C160.087 18.3398 160.312 18.75 160.463 19.2285C160.615 19.7021 160.69 20.2295 160.69 20.8105V21.6895H154.392V20.2832H158.618V20.1221C158.618 19.8291 158.564 19.5679 158.457 19.3384C158.354 19.104 158.198 18.9185 157.988 18.7817C157.778 18.645 157.509 18.5767 157.182 18.5767C156.904 18.5767 156.665 18.6377 156.464 18.7598C156.264 18.8818 156.101 19.0527 155.974 19.2725C155.852 19.4922 155.759 19.751 155.695 20.0488C155.637 20.3418 155.607 20.6641 155.607 21.0156V21.3086C155.607 21.626 155.651 21.9189 155.739 22.1875C155.832 22.4561 155.961 22.688 156.127 22.8833C156.298 23.0786 156.503 23.23 156.743 23.3374C156.987 23.4448 157.263 23.4985 157.57 23.4985C157.951 23.4985 158.305 23.4253 158.632 23.2788C158.964 23.1274 159.25 22.9004 159.489 22.5977L160.515 23.7109C160.349 23.9502 160.122 24.1797 159.833 24.3994C159.55 24.6191 159.208 24.7998 158.808 24.9414C158.408 25.0781 157.951 25.1465 157.438 25.1465ZM164.14 17.0752V25H162.031V17.0752H164.14ZM169.289 17.0752L165.876 22.0337H163.767L163.51 20.0854H164.909L166.616 17.0752H169.289ZM166.711 25L164.763 21.6528L166.601 20.6348L169.538 25H166.711ZM173.486 23.4985C173.745 23.4985 173.974 23.4497 174.174 23.3521C174.375 23.2495 174.531 23.1079 174.643 22.9272C174.76 22.7417 174.821 22.5244 174.826 22.2754H176.811C176.806 22.832 176.657 23.3276 176.364 23.7622C176.071 24.1919 175.678 24.5312 175.185 24.7803C174.692 25.0244 174.14 25.1465 173.53 25.1465C172.915 25.1465 172.377 25.0439 171.918 24.8389C171.464 24.6338 171.086 24.3506 170.783 23.9893C170.48 23.623 170.253 23.1982 170.102 22.7148C169.951 22.2266 169.875 21.7041 169.875 21.1475V20.9351C169.875 20.3735 169.951 19.8511 170.102 19.3677C170.253 18.8794 170.48 18.4546 170.783 18.0933C171.086 17.7271 171.464 17.4414 171.918 17.2363C172.373 17.0312 172.905 16.9287 173.515 16.9287C174.165 16.9287 174.733 17.0532 175.222 17.3022C175.715 17.5513 176.101 17.9077 176.379 18.3716C176.662 18.8306 176.806 19.375 176.811 20.0049H174.826C174.821 19.7412 174.765 19.502 174.658 19.2871C174.555 19.0723 174.404 18.9014 174.204 18.7744C174.008 18.6426 173.767 18.5767 173.479 18.5767C173.171 18.5767 172.919 18.6426 172.724 18.7744C172.529 18.9014 172.377 19.0771 172.27 19.3018C172.163 19.5215 172.087 19.7729 172.043 20.0562C172.004 20.3345 171.984 20.6274 171.984 20.9351V21.1475C171.984 21.4551 172.004 21.7505 172.043 22.0337C172.082 22.3169 172.155 22.5684 172.263 22.7881C172.375 23.0078 172.529 23.1812 172.724 23.3081C172.919 23.4351 173.173 23.4985 173.486 23.4985ZM183.461 20.2759V21.9165H179.433V20.2759H183.461ZM180.136 17.0752V25H178.027V17.0752H180.136ZM184.89 17.0752V25H182.773V17.0752H184.89ZM187.988 19.4263H190.288C191.01 19.4263 191.625 19.5459 192.133 19.7852C192.646 20.0195 193.037 20.3467 193.305 20.7666C193.579 21.1865 193.715 21.6724 193.715 22.2241C193.715 22.6245 193.637 22.9956 193.481 23.3374C193.33 23.6743 193.107 23.9673 192.814 24.2163C192.521 24.4653 192.163 24.6582 191.738 24.7949C191.313 24.9316 190.83 25 190.288 25H186.669V17.0752H188.786V23.3594H190.288C190.605 23.3594 190.859 23.3081 191.049 23.2056C191.245 23.0981 191.386 22.959 191.474 22.7881C191.567 22.6172 191.613 22.4316 191.613 22.2314C191.613 22.0215 191.567 21.8311 191.474 21.6602C191.386 21.4844 191.245 21.3428 191.049 21.2354C190.859 21.1279 190.605 21.0742 190.288 21.0742H187.988V19.4263ZM197.099 17.0752V25H194.99V17.0752H197.099ZM200.651 17.0752L201.962 19.4849L203.31 17.0752H205.559L203.317 20.9497L205.661 25H203.405L201.977 22.4512L200.549 25H198.293L200.637 20.9497L198.396 17.0752H200.651ZM111.691 32.5767C111.442 32.5767 111.223 32.6279 111.032 32.7305C110.847 32.8281 110.703 32.9673 110.6 33.1479C110.498 33.3286 110.446 33.5435 110.446 33.7925H108.461C108.461 33.2407 108.605 32.75 108.894 32.3203C109.182 31.8857 109.57 31.5464 110.058 31.3022C110.551 31.0532 111.096 30.9287 111.691 30.9287C112.297 30.9287 112.827 31.0312 113.281 31.2363C113.74 31.4414 114.123 31.7271 114.431 32.0933C114.743 32.4546 114.978 32.8794 115.134 33.3677C115.29 33.8511 115.368 34.3735 115.368 34.9351V35.1475C115.368 35.7041 115.29 36.2266 115.134 36.7148C114.978 37.1982 114.743 37.623 114.431 37.9893C114.123 38.3506 113.742 38.6338 113.288 38.8389C112.834 39.0439 112.309 39.1465 111.713 39.1465C111.074 39.1465 110.507 39.022 110.014 38.7729C109.526 38.5239 109.145 38.1699 108.872 37.7109C108.598 37.2471 108.461 36.7002 108.461 36.0703H110.446C110.446 36.3389 110.495 36.5806 110.593 36.7954C110.695 37.0103 110.839 37.1812 111.025 37.3081C111.21 37.4351 111.44 37.4985 111.713 37.4985C112.006 37.4985 112.25 37.4351 112.446 37.3081C112.646 37.1763 112.805 37.0005 112.922 36.7808C113.039 36.561 113.122 36.3096 113.171 36.0264C113.225 35.7432 113.251 35.4502 113.251 35.1475V34.9351C113.251 34.6226 113.225 34.3271 113.171 34.0488C113.122 33.7656 113.039 33.5142 112.922 33.2944C112.805 33.0698 112.646 32.894 112.446 32.7671C112.25 32.6401 111.999 32.5767 111.691 32.5767ZM113.933 34.3711V35.6382H111.083V34.3711H113.933ZM118.862 31.0752V39H116.752V31.0752H118.862ZM124.011 31.0752L120.598 36.0337H118.488L118.232 34.0854H119.631L121.337 31.0752H124.011ZM121.433 39L119.484 35.6528L121.323 34.6348L124.26 39H121.433ZM128.208 37.4985C128.466 37.4985 128.696 37.4497 128.896 37.3521C129.096 37.2495 129.252 37.1079 129.365 36.9272C129.482 36.7417 129.543 36.5244 129.548 36.2754H131.533C131.528 36.832 131.379 37.3276 131.086 37.7622C130.793 38.1919 130.4 38.5312 129.907 38.7803C129.414 39.0244 128.862 39.1465 128.251 39.1465C127.636 39.1465 127.099 39.0439 126.64 38.8389C126.186 38.6338 125.808 38.3506 125.505 37.9893C125.202 37.623 124.975 37.1982 124.824 36.7148C124.672 36.2266 124.597 35.7041 124.597 35.1475V34.9351C124.597 34.3735 124.672 33.8511 124.824 33.3677C124.975 32.8794 125.202 32.4546 125.505 32.0933C125.808 31.7271 126.186 31.4414 126.64 31.2363C127.094 31.0312 127.626 30.9287 128.237 30.9287C128.886 30.9287 129.455 31.0532 129.943 31.3022C130.437 31.5513 130.822 31.9077 131.101 32.3716C131.384 32.8306 131.528 33.375 131.533 34.0049H129.548C129.543 33.7412 129.487 33.502 129.379 33.2871C129.277 33.0723 129.125 32.9014 128.925 32.7744C128.73 32.6426 128.488 32.5767 128.2 32.5767C127.893 32.5767 127.641 32.6426 127.446 32.7744C127.25 32.9014 127.099 33.0771 126.992 33.3018C126.884 33.5215 126.809 33.7729 126.765 34.0562C126.726 34.3345 126.706 34.6274 126.706 34.9351V35.1475C126.706 35.4551 126.726 35.7505 126.765 36.0337C126.804 36.3169 126.877 36.5684 126.984 36.7881C127.097 37.0078 127.25 37.1812 127.446 37.3081C127.641 37.4351 127.895 37.4985 128.208 37.4985ZM138.088 31.0752V32.7305H134.25V31.0752H138.088ZM134.858 31.0752V39H132.749V31.0752H134.858ZM139.626 31.0752V39H137.509V31.0752H139.626ZM144.899 39.1465C144.284 39.1465 143.732 39.0488 143.244 38.8535C142.756 38.6533 142.341 38.3774 141.999 38.0259C141.662 37.6743 141.403 37.2666 141.223 36.8027C141.042 36.334 140.952 35.8359 140.952 35.3086V35.0156C140.952 34.415 141.037 33.8657 141.208 33.3677C141.379 32.8696 141.623 32.4375 141.94 32.0713C142.263 31.7051 142.653 31.4243 143.112 31.229C143.571 31.0288 144.089 30.9287 144.665 30.9287C145.227 30.9287 145.725 31.0215 146.159 31.207C146.594 31.3926 146.958 31.6562 147.25 31.998C147.548 32.3398 147.773 32.75 147.924 33.2285C148.076 33.7021 148.151 34.2295 148.151 34.8105V35.6895H141.853V34.2832H146.079V34.1221C146.079 33.8291 146.025 33.5679 145.917 33.3384C145.815 33.104 145.659 32.9185 145.449 32.7817C145.239 32.645 144.97 32.5767 144.643 32.5767C144.365 32.5767 144.125 32.6377 143.925 32.7598C143.725 32.8818 143.562 33.0527 143.435 33.2725C143.312 33.4922 143.22 33.751 143.156 34.0488C143.098 34.3418 143.068 34.6641 143.068 35.0156V35.3086C143.068 35.626 143.112 35.9189 143.2 36.1875C143.293 36.4561 143.422 36.688 143.588 36.8833C143.759 37.0786 143.964 37.23 144.204 37.3374C144.448 37.4448 144.724 37.4985 145.031 37.4985C145.412 37.4985 145.766 37.4253 146.093 37.2788C146.425 37.1274 146.711 36.9004 146.95 36.5977L147.976 37.7109C147.81 37.9502 147.583 38.1797 147.294 38.3994C147.011 38.6191 146.669 38.7998 146.269 38.9414C145.869 39.0781 145.412 39.1465 144.899 39.1465ZM151.462 32.5986V42.0469H149.353V31.0752H151.308L151.462 32.5986ZM156.479 34.9497V35.1035C156.479 35.6797 156.411 36.2144 156.274 36.7075C156.142 37.2007 155.947 37.6304 155.688 37.9966C155.429 38.3579 155.107 38.6411 154.721 38.8462C154.34 39.0464 153.901 39.1465 153.403 39.1465C152.919 39.1465 152.5 39.0488 152.143 38.8535C151.787 38.6582 151.486 38.3848 151.242 38.0332C151.003 37.6768 150.81 37.2642 150.664 36.7954C150.517 36.3267 150.405 35.8237 150.327 35.2866V34.8838C150.405 34.3076 150.517 33.7803 150.664 33.3018C150.81 32.8184 151.003 32.4009 151.242 32.0493C151.486 31.6929 151.784 31.417 152.136 31.2217C152.492 31.0264 152.91 30.9287 153.388 30.9287C153.891 30.9287 154.333 31.0239 154.714 31.2144C155.1 31.4048 155.422 31.6782 155.681 32.0347C155.944 32.3911 156.142 32.8159 156.274 33.3091C156.411 33.8022 156.479 34.3491 156.479 34.9497ZM154.362 35.1035V34.9497C154.362 34.6128 154.333 34.3027 154.274 34.0195C154.221 33.7314 154.133 33.48 154.011 33.2651C153.894 33.0503 153.737 32.8843 153.542 32.7671C153.352 32.645 153.12 32.584 152.846 32.584C152.558 32.584 152.312 32.6304 152.106 32.7231C151.906 32.8159 151.743 32.9502 151.616 33.126C151.489 33.3018 151.394 33.5117 151.33 33.7559C151.267 34 151.228 34.2759 151.213 34.5835V35.6016C151.237 35.9629 151.306 36.2876 151.418 36.5757C151.53 36.8589 151.704 37.0835 151.938 37.2495C152.172 37.4155 152.48 37.4985 152.861 37.4985C153.139 37.4985 153.374 37.4375 153.564 37.3154C153.754 37.1885 153.908 37.0151 154.025 36.7954C154.147 36.5757 154.233 36.3218 154.282 36.0337C154.335 35.7456 154.362 35.4355 154.362 35.1035ZM161.43 31.0752V39H159.313V31.0752H161.43ZM163.979 31.0752V32.7085H156.801V31.0752H163.979ZM167.158 36.0557L169.816 31.0752H171.926V39H169.816V34.0122L167.158 39H165.048V31.0752H167.158V36.0557ZM177.082 35.2207H175.515V34.2759H176.635C176.899 34.2759 177.109 34.2393 177.265 34.166C177.426 34.0928 177.541 33.9902 177.609 33.8584C177.683 33.7217 177.719 33.5679 177.719 33.397C177.719 33.2456 177.688 33.1016 177.624 32.9648C177.565 32.8232 177.458 32.7085 177.302 32.6206C177.15 32.5278 176.936 32.4814 176.657 32.4814C176.428 32.4814 176.223 32.5156 176.042 32.584C175.866 32.6523 175.727 32.7524 175.625 32.8843C175.527 33.0112 175.478 33.165 175.478 33.3457H173.361C173.361 32.8428 173.505 32.4131 173.793 32.0566C174.082 31.6953 174.467 31.4194 174.951 31.229C175.434 31.0337 175.964 30.936 176.54 30.936C177.043 30.936 177.497 30.9873 177.902 31.0898C178.308 31.1875 178.654 31.334 178.942 31.5293C179.23 31.7246 179.45 31.9663 179.602 32.2544C179.758 32.5376 179.836 32.8672 179.836 33.2432C179.836 33.5117 179.772 33.7656 179.646 34.0049C179.519 34.2441 179.335 34.4565 179.096 34.6421C178.857 34.8228 178.566 34.9644 178.225 35.0669C177.888 35.1694 177.507 35.2207 177.082 35.2207ZM175.515 34.6934H177.082C177.556 34.6934 177.971 34.7397 178.327 34.8325C178.688 34.9204 178.991 35.0522 179.235 35.228C179.479 35.4038 179.663 35.6211 179.785 35.8799C179.912 36.1338 179.975 36.4268 179.975 36.7588C179.975 37.1348 179.892 37.4717 179.726 37.7695C179.56 38.0625 179.323 38.3115 179.016 38.5166C178.708 38.7217 178.344 38.8779 177.924 38.9854C177.504 39.0928 177.043 39.1465 176.54 39.1465C176.003 39.1465 175.48 39.0586 174.973 38.8828C174.465 38.707 174.047 38.436 173.72 38.0698C173.398 37.7036 173.237 37.2324 173.237 36.6562H175.354C175.354 36.8223 175.402 36.9785 175.5 37.125C175.598 37.2715 175.744 37.3887 175.939 37.4766C176.135 37.5596 176.376 37.6011 176.665 37.6011C176.953 37.6011 177.185 37.5547 177.36 37.4619C177.536 37.3691 177.663 37.2471 177.741 37.0957C177.824 36.9395 177.866 36.7783 177.866 36.6123C177.866 36.3779 177.819 36.1875 177.727 36.041C177.639 35.8945 177.502 35.7871 177.316 35.7188C177.136 35.6504 176.909 35.6162 176.635 35.6162H175.515V34.6934Z" fill="white"/>
<path d="M34.9609 35.0449L34.5215 47.5693H30.2979V39H26.8066V35.0449H34.9609ZM4.27246 39V3.45312H9.00879V35.167H26.5137V3.45312H31.2256V39H4.27246ZM45.6299 3.45312V39H40.918V3.45312H45.6299ZM67.5293 3.45312L52.0996 23.0088H43.75L43.0176 19.1025H49.292L61.6943 3.45312H67.5293ZM62.793 39L49.4385 22.3984L52.0752 18.2725L68.5547 39H62.793ZM95.5566 19.3467V23.2041H80.9814V19.3467H95.5566ZM72.3145 27.6963H77.002C77.2624 29.3727 77.6937 30.805 78.2959 31.9932C78.9144 33.1813 79.8177 34.0928 81.0059 34.7275C82.194 35.346 83.7891 35.6553 85.791 35.6553C87.3698 35.6553 88.737 35.3298 89.8926 34.6787C91.0482 34.0114 92.0003 33.0999 92.749 31.9443C93.4977 30.7887 94.0511 29.446 94.4092 27.916C94.7835 26.3861 94.9707 24.7503 94.9707 23.0088V19.4443C94.9707 17.9307 94.8405 16.5309 94.5801 15.2451C94.3197 13.943 93.929 12.7793 93.4082 11.7539C92.8874 10.7122 92.2363 9.8252 91.4551 9.09277C90.6901 8.36035 89.7949 7.79883 88.7695 7.4082C87.7604 7.01758 86.6292 6.82227 85.376 6.82227C83.5531 6.82227 82.0638 7.14779 80.9082 7.79883C79.7689 8.44987 78.89 9.3776 78.2715 10.582C77.6693 11.7702 77.2461 13.1943 77.002 14.8545H72.3145C72.5586 12.5107 73.2015 10.4518 74.2432 8.67773C75.2848 6.88737 76.7253 5.48763 78.5645 4.47852C80.4199 3.4694 82.6904 2.96484 85.376 2.96484C87.5732 2.96484 89.5508 3.35547 91.3086 4.13672C93.0664 4.91797 94.5638 6.03288 95.8008 7.48145C97.054 8.93001 98.0062 10.6715 98.6572 12.7061C99.3245 14.7406 99.6582 17.0029 99.6582 19.4932V23.0088C99.6582 25.499 99.3245 27.7614 98.6572 29.7959C98.0062 31.8141 97.0703 33.5475 95.8496 34.9961C94.6289 36.4284 93.1641 37.5352 91.4551 38.3164C89.7624 39.0977 87.8743 39.4883 85.791 39.4883C82.9427 39.4883 80.5664 38.9756 78.6621 37.9502C76.7578 36.9085 75.2848 35.5007 74.2432 33.7266C73.2178 31.9525 72.5749 29.9424 72.3145 27.6963Z" fill="white"/>
</svg>
